<?xml version="1.0" standalone="no"?>
<!DOCTYPE svg PUBLIC "-//W3C//DTD SVG 20010904//EN"
 "http://www.w3.org/TR/2001/REC-SVG-20010904/DTD/svg10.dtd">
<svg version="1.0" xmlns="http://www.w3.org/2000/svg"
 width="60.000000pt" height="60.000000pt" viewBox="0 0 60.000000 60.000000"
 preserveAspectRatio="xMidYMid meet">

<g transform="translate(0.000000,60.000000) scale(0.100000,-0.100000)"
fill="#000000" stroke="none">
<path d="M105 585 c-48 -17 -81 -52 -94 -103 -15 -53 -13 -329 3 -373 7 -20
26 -52 42 -72 l29 -37 215 0 216 0 32 42 c47 61 54 101 50 282 -3 181 -13 212
-78 251 -31 18 -55 20 -205 22 -129 2 -180 -1 -210 -12z m238 -73 l28 -52 -45
6 c-24 4 -58 2 -75 -4 -19 -7 -31 -7 -31 -1 0 5 4 9 8 9 5 0 14 12 21 28 21
47 42 73 54 69 7 -2 25 -27 40 -55z m37 -84 c132 -67 132 -249 0 -316 -56 -28
-104 -28 -160 0 -132 67 -132 249 0 316 24 12 60 22 80 22 20 0 56 -10 80 -22z
m-240 -37 c0 -6 -4 -12 -9 -15 -5 -4 -15 -29 -22 -56 l-13 -50 -38 37 c-56 54
-50 71 27 84 22 4 43 7 48 8 4 0 7 -3 7 -8z m423 -13 c26 -13 21 -30 -21 -71
l-38 -37 -13 50 c-7 27 -17 52 -22 56 -36 22 51 24 94 2z m-393 -258 c18 -16
38 -30 46 -30 28 0 13 -21 -31 -42 -58 -28 -70 -18 -60 51 4 28 8 51 10 51 2
0 17 -13 35 -30z m304 -1 c10 -50 7 -79 -8 -85 -15 -6 -96 31 -96 44 0 4 14
13 31 21 16 7 36 22 42 32 17 27 24 24 31 -12z"/>
<path d="M200 380 c-17 -17 -20 -28 -15 -48 4 -15 10 -61 14 -102 l6 -75 75
-3 c41 -2 84 1 95 7 11 5 28 12 38 15 15 5 18 15 15 58 -3 44 -6 53 -25 58
-17 4 -20 9 -13 20 28 44 -8 98 -57 86 -35 -9 -51 -9 -85 -1 -19 5 -32 1 -48
-15z"/>
</g>
</svg>
